<svg width="92" height="32" viewBox="0 0 92 32" fill="none" xmlns="http://www.w3.org/2000/svg">
<path d="M49.3779 6.62109C55.5483 6.62109 59.4488 9.41504 59.918 13.7656H55.1045C54.7215 11.9779 52.3458 10.9326 49.3779 10.9326C45.717 10.9326 43.634 12.8619 43.6338 15.7949C43.6338 18.7283 45.7121 20.6592 49.3779 20.6592C52.3621 20.6592 54.7293 19.6073 55.1123 17.8262H59.918C59.4488 22.1769 55.5483 24.9707 49.3779 24.9707C42.7901 24.9707 38.7891 21.3348 38.7891 15.7949C38.7893 10.2553 42.7902 6.62111 49.3779 6.62109Z" fill="white"/>
<path fill-rule="evenodd" clip-rule="evenodd" d="M26.6758 11.333H14.3857V13.8691H23.1494C26.3835 13.8691 28.7793 15.6497 28.7793 19.209C28.7792 22.1423 26.6229 24.5742 23.1494 24.5742H9.54688V7.02148H26.6758V11.333ZM14.3613 20.5137H22.5508C23.4363 20.5137 23.9404 20.1332 23.9404 19.209C23.9404 18.2848 23.4364 17.9316 22.5508 17.9316H14.3613V20.5137Z" fill="white"/>
<path d="M5.83887 24.5693H1V7.02148H5.83887V24.5693Z" fill="white"/>
<path d="M36.085 24.5693H31.25V7.02148H36.085V24.5693Z" fill="white"/>
<path d="M91.7598 16.3555L76.4043 31.5898H59.9219L79.7529 12.4375L91.7598 16.3555Z" fill="#FF612F"/>
<path d="M91.7598 15.2344L79.04 9.97461L76.6221 11.2939C75.6319 11.8338 74.4916 12.0397 73.373 11.8818C72.2545 11.724 71.2171 11.2104 70.418 10.418L59.9219 0H76.4043L91.7598 15.2344Z" fill="#FF612F"/>
</svg>
